<svg xmlns="http://www.w3.org/2000/svg" viewBox="0 0 461.17 517.54"><defs><style>.cls-1{fill:#ffc100;stroke:#ffc100;stroke-width:6.49px;}.cls-1,.cls-2{stroke-miterlimit:10;}.cls-2{fill:none;stroke:#ffd000;stroke-width:9.74px;}</style></defs><g id="Layer_2" data-name="Layer 2"><g id="Layer_1-2" data-name="Layer 1"><path class="cls-1" d="M373.7,465.47c-11.28,12-20.36,22.35-30.09,32-16.24,16.11-46.69,18.69-66.26,6.11-19.76-12.7-25.6-33.89-18.52-58.55,2.58-9,.41-19.37.41-28.7,27.23,12,34.05,22.91,33.21,51.46-.13,4.32,4,12.31,6.46,12.4,4.74.19,11.61-2.72,14.14-6.61,11.08-17,3.1-42.91-17.42-60.12-10.76-9-22.29-17.28-32.08-27.25-13-13.2-18.9-29.41-15.27-49.76,6.79,4.93,11.85,10.5,18.07,12.52,5,1.62,11.35-1.08,17.11-1.87-1.48-5.15-1.37-12-4.71-15.15-13.81-13.21-25.81-26.43-20-47.74,6.66-24.29,26.62-41.29,51.8-41.13,13,.08,21.84-4.17,31.08-13.16,38.22-37.2,100.23-22.23,112.75,26.68,5.93,23.16-3,42.4-17.1,60-2.36,2.94-6.21,5.19-7.4,8.48-2.13,5.86-2.76,12.26-4,18.44,6.61-1.06,13.35-1.64,19.76-3.4,2.75-.76,4.81-4,7.35-6.25,15,35.24-6,90.18-39.89,105.8-14.39,6.63-28.55,6.41-41.26-3.42s-9.53-24-5.73-35.93C370.49,386.59,377.89,373.7,385,361c19.3-34.37,18.53-44.4-6.55-75-1.9-2.33-1.65-6.59-2-10-1-9.05-.63-18.42-3-27.06-1-3.72-7.93-8.66-11.38-8.11-3.73.6-7.21,6.59-9.5,10.92-1.31,2.49-.29,6.38.12,9.58,1.46,11.3-1.78,18.13-14.31,20.81-8.09,1.73-16.22,6.44-22.56,11.89-3.17,2.72-2.34,10.08-3.32,15.34,4.87.8,10.12,3.14,14.53,2,6.65-1.65,12.44-6.66,19.09-8.54,15.84-4.48,29.62,7.74,27.88,24a48.35,48.35,0,0,1-55.1,42.94c-9.17-1.31-18-1.41-17.92,9.23,0,4.38,9.39,9.14,15.1,12.78,2.38,1.52,6.4,1.11,9.56.68,14.36-1.95,17.54,3.05,14.66,17.44-3.67,18.33,4.08,33.84,19.25,45.18C364.15,458.55,368.85,461.93,373.7,465.47Z"/><path class="cls-2" d="M218.93,370.73C193.41,361.2,174,347.62,170.36,319c-1.8-14.09-8.36-23.53-23.09-27.85-26.44-7.74-35.3-25.43-27.84-52.21.58-2.08,1-4.22,1.78-6.24,3-8.18,11.37-17.93-1.2-23.68s-17.26,6-20.64,14.79c-4.5,11.65-12.24,12.17-22.13,9.41-26.16-7.31-37.77-27.74-31.7-54.44,1.09-4.81-.19-10.48-1.51-15.45-6-22.71-6-54.27,22-74.29,1.83,4.59,3,9,5.21,12.79,9,15.19,17.43,30.93,28.19,44.81,3.47,4.48,16.06,7.61,20,4.88,9.37-6.51,1-13.28-3.58-20.07C106.61,117.7,96,104.06,90.55,88.72,81,61.62,99.07,36.3,127.4,31.82a28.68,28.68,0,0,0,15.88-8.52C161.19,3,189-1.22,210.17,14.07c19.18,13.84,24.91,42.47,11.24,64-6,9.43-7.28,16.08-.87,26,11.15,17.28,8.68,35.41-3.21,51.53-5.44,7.38-4.67,12.27-.84,20.19,4.74,9.81,7.32,21.17,8.41,32.11,1.18,11.74-4.28,21.29-16.89,24.23-13.35,3.11-28.68-3.56-31.48-16.42-3-13.93-3-28.79-2.47-43.17.81-22.11,4.34-44.14,4.59-66.23.26-23.79-13.82-43.73-33.84-48-6.63-1.41-18.94,2-21.28,6.83-5,10.17,5.36,12.58,13.48,14.9,13.18,3.78,20.41,17.7,18.81,35.21-2.46,26.89-5.19,53.76-7.41,80.67-2.5,30.33,19.1,56.92,49.31,59.65,10.66,1,16.06,3.07,14.28,15.29-.65,4.51,2.75,10.08,5.4,14.51C232.4,310.56,233.47,342.27,218.93,370.73Z"/><path class="cls-2" d="M10.41,324.73c23.22,26.37,50.25,41.14,80,52.51,7.27,2.78,15.42,14.1,15.54,21.62s-8.18,16.4-14.78,22.54c-6.76,6.28-23.31,6.82-15.24,20.83,7.72,13.39,19.39,3.58,28.22-1.35,24-13.38,52.29-3.44,63.12,22.94,1.83,4.46,2.66,9.83,5.73,13.13,2.34,2.52,8.48,4.4,11.13,3,3.5-1.79,7.89-7.6,7.23-10.68-2-9.25-6.35-18-9.58-27-4.25-11.84-8-23.88-12.55-35.59-2.61-6.67-5.66-17.6-9.93-18.34-12.26-2.11-11.93,9-12.49,17.72-.13,2.13-.32,4.25-.56,7.31-9.57.47-15.84-1.79-15.94-12.78-.24-25.84-14.7-40.76-38.06-48.36-26.88-8.76-49.8-23.26-67.62-45.47C1.3,277.77-1.87,239.18,17.8,209c12.32,31.32,36,45.86,67.59,51,5.31.86,8.9,12.27,13.28,18.8l-3.57,5.75c-11.69-2-23.32-4.87-35.1-5.82-6.46-.52-13.17,2.15-19.77,3.39,4.11,5.93,7.32,15.85,12.52,17.05,15.84,3.64,32.46,3.94,48.78,5.49,6.11.58,12.38.37,18.33,1.67,18.26,4,27.42,14.62,32,33.95,5.86,24.73,27.61,37.27,49.11,48.69,44.59,23.69,47,87.87,4.63,114.07-30.32,18.75-66.71,9.28-82.75-22.56-4.38-8.7-9.28-9.88-17.77-8.74-26.33,3.57-50.3-.18-63.55-26.94-4.11-8.29-5.33-18-8.56-29.54,10.64,0,18.3,1.41,25.12-.39s17.39-6.08,18.09-10.55c1.74-11.23-8.9-10.67-17.07-11.16-35.35-2.11-56.36-25.42-52.29-58C7.13,332.68,8.46,330.27,10.41,324.73Z"/><path class="cls-1" d="M251.7,240.48c-1.28-23-4.46-46.83-3.37-70.49,1-21.51,14.74-37.53,31.24-51.05C295,106.33,312,94.72,316.38,73.19c1.16-5.77,3.16-12.41,1.38-17.45-1.94-5.5-7.81-9.62-12-14.34-3.37,4.69-9.31,9.21-9.65,14.11C295,71.33,288,83.07,276.18,92.74c-8.73,7.15-17.37,14.42-26,21.58-1.09-.9-2.6-1.89-2.5-2.1,7.87-16.18,4.68-32.43,2.77-49.51-3.08-27.65,14.44-49.15,41.37-55.93,28-7.06,58.56,5.83,69.26,29.26,11.58,25.35,3.9,53.87-20,70.21-21.19,14.48-42.11,28.88-52,54.06-3.14,8-8.07,17.51,3.53,22.13,10.59,4.23,12.67-5.84,17.06-12.63,7.87-12.19,17.08-23.52,25.73-35.2l6.15,2c2.43,6.79,4,14.07,7.57,20.19,2.59,4.45,7.81,7.36,11.86,11,3.2-4.85,6.56-9.61,9.49-14.61a5.37,5.37,0,0,0-.27-4.73c-17.73-25.36,2.22-40.79,16-59.26q21.78,15.94,21.47,42.48c-.1,8.94,1.72,14.62,11.33,18.57,22.29,9.16,30.64,25,29.12,51.72-3-1-5.92-1.57-8.38-2.9-35.67-19.22-77.48-15-109.53,10.22-6.35,5-15,7.11-22.83,10.13C289.18,226.43,270.81,233.26,251.7,240.48Z"/></g></g></svg>